<svg width="50" height="50" viewBox="0 0 50 50" xmlns="http://www.w3.org/2000/svg">
  <path d="M37.5,12.5 C37.5,8.375 34.125,5 30,5 C25.875,5 22.5,8.375 22.5,12.5 C22.5,8.375 19.125,5 15,5 C10.875,5 7.5,8.375 7.5,12.5 C7.5,16.625 10.875,20 15,20 L15,35 C10.875,35 7.5,38.375 7.5,42.5 C7.5,46.625 10.875,50 15,50 C19.125,50 22.5,46.625 22.5,42.5 C22.5,46.625 25.875,50 30,50 C34.125,50 37.5,46.625 37.5,42.5 C37.5,38.375 34.125,35 30,35 L30,20 C34.125,20 37.5,16.625 37.5,12.5 Z" 
        fill="#4ECDC4" stroke="#333333" stroke-width="2"/>
</svg>
